# Blender v3.0.0 OBJ File: 'pistolwithahoriblehand01.blend'
# www.blender.org
mtllib pistolwithahoriblehand02.mtl
o Gun_Cube
v 0.761842 2.738863 -3.411075
v 0.761842 0.741522 -3.885222
v 0.761842 2.743343 3.816490
v 0.761842 0.743343 3.816490
v 0.886592 1.743343 -3.649724
v 0.886592 1.743343 3.816490
v 0.000000 0.741522 -3.885222
v 0.000000 2.743343 3.816490
v 0.000000 0.743343 3.816490
v 0.000000 2.738863 -3.411075
v 0.000000 1.743343 -3.649724
v 0.000000 1.743343 3.816490
v 0.886592 1.743343 -1.160985
v 0.761842 0.743343 -1.160986
v 0.761842 0.743343 1.327752
v 0.761842 2.743343 1.327752
v 0.761842 2.743343 -1.160985
v 0.886592 1.743343 1.327752
v 0.000000 0.743343 -1.160985
v 0.000000 0.743343 1.327752
v 0.000000 2.743343 -1.160985
v 0.000000 2.743343 1.327752
v 0.000000 2.623343 -2.820000
v 0.000000 2.623343 3.940000
v 0.280000 2.548317 -2.820000
v 0.280000 2.548317 3.940000
v 0.484974 2.343343 -2.820000
v 0.484974 2.343342 3.940000
v 0.560000 2.063343 -2.820000
v 0.560000 2.063343 3.940000
v 0.484974 1.783343 -2.820000
v 0.484974 1.783342 3.940000
v 0.280000 1.578369 -2.820000
v 0.280000 1.578368 3.940000
v 0.000000 1.503343 -2.820000
v 0.000000 1.503343 3.940000
v -0.280000 1.578369 -2.820000
v -0.280000 1.578368 3.940000
v -0.484974 1.783343 -2.820000
v -0.484974 1.783343 3.940000
v -0.560000 2.063343 -2.820000
v -0.560000 2.063343 3.940000
v -0.484974 2.343343 -2.820000
v -0.484974 2.343342 3.940000
v -0.280000 2.548317 -2.820000
v -0.280000 2.548317 3.940000
v 0.239808 2.478702 3.940000
v 0.000000 2.542958 3.940000
v 0.415360 2.303150 3.940000
v 0.479616 2.063343 3.940000
v 0.415360 1.823534 3.940000
v 0.239808 1.647983 3.940000
v 0.000000 1.583727 3.940000
v -0.239808 1.647983 3.940000
v -0.415360 1.823534 3.940000
v -0.479616 2.063343 3.940000
v -0.415360 2.303150 3.940000
v -0.239808 2.478702 3.940000
v 0.239808 2.478702 2.490963
v 0.000000 2.542958 2.490963
v 0.415360 2.303150 2.490963
v 0.479616 2.063343 2.490963
v 0.415360 1.823534 2.490963
v 0.239808 1.647983 2.490963
v 0.000000 1.583727 2.490963
v -0.239808 1.647983 2.490963
v -0.415360 1.823535 2.490963
v -0.479616 2.063343 2.490963
v -0.415360 2.303150 2.490963
v -0.239808 2.478702 2.490963
v -0.025383 2.443898 3.650638
v -0.025383 2.868310 3.650638
v -0.025383 2.443898 3.226226
v -0.025383 2.868310 3.226226
v 0.025383 2.443898 3.650638
v 0.025383 2.868310 3.650638
v 0.025383 2.443898 3.226226
v 0.025383 2.868310 3.226226
v 0.029370 2.485157 -2.679526
v 0.029370 2.899510 -2.679526
v 0.029370 2.485157 -3.301634
v 0.029370 2.899510 -3.301634
v 0.098721 2.485157 -2.679526
v 0.098721 2.899510 -2.679526
v 0.098721 2.485157 -3.301634
v 0.098721 2.899510 -3.301634
v 0.761842 0.743343 1.102649
v 0.761842 2.743343 1.102649
v 0.000000 0.743343 1.102649
v 0.886592 1.743343 1.102649
v 0.000000 2.743343 1.102649
v 0.000000 -0.390003 1.102649
v 0.000000 -0.390003 1.327752
v 0.513472 -0.390003 1.327752
v 0.513472 -0.390003 1.102649
v 0.886592 1.743343 -3.204676
v 0.761842 2.740044 -3.204676
v 0.761842 0.742002 -3.204676
v 0.000000 2.740044 -3.204676
v 0.000000 0.742002 -3.204676
v 0.725564 0.570924 1.102649
v 0.000000 0.570924 1.102649
v 0.000000 0.570924 1.327752
v 0.725564 0.570924 1.327752
v 0.513472 0.002260 1.102649
v 0.000000 0.002260 1.102649
v 0.000000 0.002260 1.327752
v 0.513472 0.002260 1.327752
v 0.000000 0.432104 -3.213966
v 0.000000 -0.040001 -1.504468
v 0.561316 -0.040001 -1.504468
v 0.561316 0.432104 -3.213966
v 0.000000 -2.755095 -4.206918
v 0.000000 -2.755095 -2.141532
v 0.561316 -2.755095 -2.141532
v 0.561316 -2.755095 -4.206918
v 0.000000 -2.918288 -4.206918
v 0.000000 -2.918288 -2.141532
v 0.634891 -2.918288 -2.141532
v 0.634891 -2.918288 -4.206918
v 0.000000 -0.549716 1.102649
v 0.000000 -0.549716 1.327752
v 0.513472 -0.549716 1.327752
v 0.513472 -0.549716 1.102649
v 0.513471 -0.566920 -0.768779
v 0.000000 -0.566920 -0.768779
v 0.513471 -0.726633 -0.768779
v 0.000000 -0.726633 -0.768779
v 0.513471 -0.281131 -1.626146
v 0.000000 -0.281131 -1.626146
v 0.513471 -0.440844 -1.626146
v 0.000000 -0.440844 -1.626146
v -0.761842 2.738863 -3.411075
v -0.761842 0.741522 -3.885222
v -0.761842 2.743343 3.816490
v -0.761842 0.743343 3.816490
v -0.886592 1.743343 -3.649724
v -0.886592 1.743343 3.816490
v -0.886592 1.743343 -1.160985
v -0.761842 0.743343 -1.160986
v -0.761842 0.743343 1.327752
v -0.761842 2.743343 1.327752
v -0.761842 2.743343 -1.160985
v -0.886592 1.743343 1.327752
v -0.280000 2.548317 -2.820000
v -0.280000 2.548317 3.940000
v -0.484974 2.343343 -2.820000
v -0.484974 2.343342 3.940000
v -0.560000 2.063343 -2.820000
v -0.560000 2.063343 3.940000
v -0.484974 1.783343 -2.820000
v -0.484974 1.783342 3.940000
v -0.280000 1.578369 -2.820000
v -0.280000 1.578368 3.940000
v 0.280000 1.578369 -2.820000
v 0.280000 1.578368 3.940000
v 0.484974 1.783343 -2.820000
v 0.484974 1.783343 3.940000
v 0.560000 2.063343 -2.820000
v 0.560000 2.063343 3.940000
v 0.484974 2.343343 -2.820000
v 0.484974 2.343342 3.940000
v 0.280000 2.548317 -2.820000
v 0.280000 2.548317 3.940000
v -0.239808 2.478702 3.940000
v -0.415360 2.303150 3.940000
v -0.479616 2.063343 3.940000
v -0.415360 1.823534 3.940000
v -0.239808 1.647983 3.940000
v 0.239808 1.647983 3.940000
v 0.415360 1.823534 3.940000
v 0.479616 2.063343 3.940000
v 0.415360 2.303150 3.940000
v 0.239808 2.478702 3.940000
v -0.239808 2.478702 2.490963
v -0.415360 2.303150 2.490963
v -0.479616 2.063343 2.490963
v -0.415360 1.823534 2.490963
v -0.239808 1.647983 2.490963
v 0.239808 1.647983 2.490963
v 0.415360 1.823535 2.490963
v 0.479616 2.063343 2.490963
v 0.415360 2.303150 2.490963
v 0.239808 2.478702 2.490963
v 0.025383 2.443898 3.650638
v 0.025383 2.868310 3.650638
v 0.025383 2.443898 3.226226
v 0.025383 2.868310 3.226226
v -0.025383 2.443898 3.650638
v -0.025383 2.868310 3.650638
v -0.025383 2.443898 3.226226
v -0.025383 2.868310 3.226226
v -0.029370 2.485157 -2.679526
v -0.029370 2.899510 -2.679526
v -0.029370 2.485157 -3.301634
v -0.029370 2.899510 -3.301634
v -0.098721 2.485157 -2.679526
v -0.098721 2.899510 -2.679526
v -0.098721 2.485157 -3.301634
v -0.098721 2.899510 -3.301634
v -0.761842 0.743343 1.102649
v -0.761842 2.743343 1.102649
v -0.886592 1.743343 1.102649
v -0.513472 -0.390003 1.327752
v -0.513472 -0.390003 1.102649
v -0.886592 1.743343 -3.204676
v -0.761842 2.740044 -3.204676
v -0.761842 0.742002 -3.204676
v -0.725564 0.570924 1.102649
v -0.725564 0.570924 1.327752
v -0.513472 0.002260 1.102649
v -0.513472 0.002260 1.327752
v -0.561316 -0.040001 -1.504468
v -0.561316 0.432104 -3.213966
v -0.561316 -2.755095 -2.141532
v -0.561316 -2.755095 -4.206918
v -0.634891 -2.918288 -2.141532
v -0.634891 -2.918288 -4.206918
v -0.513472 -0.549716 1.327752
v -0.513472 -0.549716 1.102649
v -0.513471 -0.566920 -0.768779
v -0.513471 -0.726633 -0.768779
v -0.513471 -0.281131 -1.626146
v -0.513471 -0.440844 -1.626146
vt 0.625000 0.521970
vt 0.750000 0.521970
vt 0.750000 0.583333
vt 0.625000 0.583333
vt 0.250000 0.666667
vt 0.375000 0.666667
vt 0.375000 0.750000
vt 0.250000 0.750000
vt 0.500000 0.375000
vt 0.625000 0.375000
vt 0.625000 0.500000
vt 0.500000 0.500000
vt 0.375000 0.375000
vt 0.375000 0.500000
vt 0.500000 0.666667
vt 0.625000 0.666667
vt 0.625000 0.750000
vt 0.500000 0.750000
vt 0.500000 0.875000
vt 0.375000 0.875000
vt 0.625000 0.875000
vt 0.500000 0.521970
vt 0.500000 0.583333
vt 0.375000 0.659129
vt 0.500000 0.659129
vt 0.375000 0.521970
vt 0.375000 0.583333
vt 0.625000 0.659129
vt 0.750000 0.659129
vt 0.750000 0.666667
vt 0.750000 0.750000
vt 0.250000 0.583333
vt 0.250000 0.583333
vt 0.375000 0.583333
vt 0.250000 0.659129
vt 0.375000 0.659129
vt 0.375000 0.659129
vt 0.250000 0.659129
vt 1.000000 0.500000
vt 1.000000 1.000000
vt 0.916667 1.000000
vt 0.916667 0.500000
vt 0.833333 1.000000
vt 0.833333 0.500000
vt 0.750000 1.000000
vt 0.750000 0.500000
vt 0.666667 1.000000
vt 0.666667 0.500000
vt 0.583333 1.000000
vt 0.583333 0.500000
vt 0.500000 1.000000
vt 0.500000 0.500000
vt 0.666667 1.000000
vt 0.583333 1.000000
vt 0.750000 0.490000
vt 0.870000 0.457846
vt 0.957846 0.370000
vt 0.990000 0.250000
vt 0.957846 0.130000
vt 0.870000 0.042154
vt 0.750000 0.010000
vt 0.630000 0.042154
vt 0.542154 0.130000
vt 0.510000 0.250000
vt 0.542154 0.370000
vt 0.630000 0.457846
vt 0.916667 1.000000
vt 1.000000 1.000000
vt 1.000000 1.000000
vt 0.916667 1.000000
vt 0.000000 0.000000
vt 0.000000 0.000000
vt 0.000000 0.000000
vt 0.000000 0.000000
vt 0.750000 1.000000
vt 0.833333 1.000000
vt 0.000000 0.000000
vt 0.000000 0.000000
vt 0.000000 0.000000
vt 0.000000 0.000000
vt 0.000000 0.000000
vt 0.000000 0.000000
vt 0.000000 0.000000
vt 0.000000 0.000000
vt 0.000000 0.000000
vt 0.000000 0.000000
vt 0.500000 1.000000
vt 0.370000 0.457846
vt 0.250000 0.490000
vt 0.130000 0.457846
vt 0.042154 0.370000
vt 0.010000 0.250000
vt 0.042154 0.130000
vt 0.130000 0.042154
vt 0.250000 0.010000
vt 0.370000 0.042154
vt 0.457846 0.130000
vt 0.490000 0.250000
vt 0.457846 0.370000
vt 0.000000 0.000000
vt 0.000000 0.000000
vt 0.666667 1.000000
vt 0.583333 1.000000
vt 0.000000 0.000000
vt 0.000000 0.000000
vt 0.833333 1.000000
vt 0.000000 0.000000
vt 0.500000 1.000000
vt 0.750000 1.000000
vt 0.000000 0.000000
vt 0.000000 0.000000
vt 0.375000 0.000000
vt 0.625000 0.000000
vt 0.625000 0.250000
vt 0.375000 0.250000
vt 0.625000 0.500000
vt 0.375000 0.500000
vt 0.625000 0.750000
vt 0.375000 0.750000
vt 0.625000 1.000000
vt 0.375000 1.000000
vt 0.125000 0.500000
vt 0.125000 0.750000
vt 0.875000 0.500000
vt 0.875000 0.750000
vt 0.375000 0.000000
vt 0.625000 0.000000
vt 0.625000 0.250000
vt 0.375000 0.250000
vt 0.625000 0.500000
vt 0.375000 0.500000
vt 0.625000 0.750000
vt 0.375000 0.750000
vt 0.625000 1.000000
vt 0.375000 1.000000
vt 0.125000 0.500000
vt 0.125000 0.750000
vt 0.875000 0.500000
vt 0.875000 0.750000
vt 0.250000 0.659129
vt 0.375000 0.666667
vt 0.250000 0.666667
vt 0.250000 0.666667
vt 0.375000 0.666667
vt 0.000000 0.000000
vt 0.000000 0.000000
vt 0.000000 0.000000
vt 0.000000 0.000000
vt 0.375000 0.666667
vt 0.250000 0.666667
vt 0.250000 0.500000
vt 0.250000 0.521970
vt 0.750000 0.500000
vt 0.375000 0.666667
vt 0.375000 0.659129
vt 0.250000 0.666667
vt 0.000000 0.000000
vt 0.000000 0.000000
vt 0.000000 0.000000
vt 0.000000 0.000000
vt 0.250000 0.659129
vt 0.250000 0.521970
vt 0.375000 0.521970
vt 0.375000 0.521970
vt 0.250000 0.521970
vt 0.375000 0.583333
vt 0.375000 0.583333
vt 0.375000 0.521970
vt 0.250000 0.583333
vt 0.250000 0.521970
vt 0.250000 0.583333
vt 0.250000 0.659129
vt 0.375000 0.659129
vt 0.000000 0.000000
vt 0.000000 0.000000
vt 0.000000 0.000000
vt 0.000000 0.000000
vt 0.000000 0.000000
vt 0.000000 0.000000
vt 0.250000 0.659129
vt 0.375000 0.659129
vt 0.375000 0.659129
vt 0.250000 0.659129
vt 0.250000 0.659129
vt 0.375000 0.659129
vt 0.375000 0.659129
vt 0.250000 0.659129
vt 0.625000 0.521970
vt 0.625000 0.583333
vt 0.375000 0.750000
vt 0.375000 0.666667
vt 0.500000 0.500000
vt 0.625000 0.500000
vt 0.375000 0.500000
vt 0.500000 0.666667
vt 0.500000 0.750000
vt 0.625000 0.750000
vt 0.625000 0.666667
vt 0.500000 0.521970
vt 0.500000 0.583333
vt 0.375000 0.659129
vt 0.500000 0.659129
vt 0.375000 0.521970
vt 0.375000 0.583333
vt 0.625000 0.659129
vt 0.375000 0.583333
vt 0.375000 0.659129
vt 0.375000 0.659129
vt 0.916667 0.500000
vt 0.916667 1.000000
vt 0.833333 0.500000
vt 0.833333 1.000000
vt 0.750000 0.500000
vt 0.750000 1.000000
vt 0.666667 0.500000
vt 0.666667 1.000000
vt 0.583333 0.500000
vt 0.583333 1.000000
vt 0.583333 1.000000
vt 0.666667 1.000000
vt 0.630000 0.457846
vt 0.542154 0.370000
vt 0.510000 0.250000
vt 0.542154 0.130000
vt 0.630000 0.042154
vt 0.870000 0.042154
vt 0.957846 0.130000
vt 0.990000 0.250000
vt 0.957846 0.370000
vt 0.870000 0.457846
vt 0.916667 1.000000
vt 0.916667 1.000000
vt 0.000000 0.000000
vt 0.000000 0.000000
vt 0.000000 0.000000
vt 0.000000 0.000000
vt 0.750000 1.000000
vt 0.833333 1.000000
vt 0.000000 0.000000
vt 0.000000 0.000000
vt 0.000000 0.000000
vt 0.000000 0.000000
vt 0.000000 0.000000
vt 0.000000 0.000000
vt 0.370000 0.457846
vt 0.457846 0.370000
vt 0.490000 0.250000
vt 0.457846 0.130000
vt 0.370000 0.042154
vt 0.130000 0.042154
vt 0.042154 0.130000
vt 0.010000 0.250000
vt 0.042154 0.370000
vt 0.130000 0.457846
vt 0.000000 0.000000
vt 0.000000 0.000000
vt 0.583333 1.000000
vt 0.666667 1.000000
vt 0.000000 0.000000
vt 0.833333 1.000000
vt 0.000000 0.000000
vt 0.750000 1.000000
vt 0.000000 0.000000
vt 0.375000 0.000000
vt 0.375000 0.250000
vt 0.625000 0.250000
vt 0.625000 0.000000
vt 0.375000 0.500000
vt 0.625000 0.500000
vt 0.375000 0.750000
vt 0.625000 0.750000
vt 0.375000 1.000000
vt 0.625000 1.000000
vt 0.125000 0.500000
vt 0.125000 0.750000
vt 0.875000 0.750000
vt 0.875000 0.500000
vt 0.375000 0.000000
vt 0.375000 0.250000
vt 0.625000 0.250000
vt 0.625000 0.000000
vt 0.375000 0.500000
vt 0.625000 0.500000
vt 0.375000 0.750000
vt 0.625000 0.750000
vt 0.375000 1.000000
vt 0.625000 1.000000
vt 0.125000 0.500000
vt 0.125000 0.750000
vt 0.875000 0.750000
vt 0.875000 0.500000
vt 0.375000 0.666667
vt 0.375000 0.666667
vt 0.375000 0.666667
vt 0.375000 0.659129
vt 0.375000 0.666667
vt 0.375000 0.521970
vt 0.375000 0.521970
vt 0.375000 0.521970
vt 0.375000 0.583333
vt 0.375000 0.583333
vt 0.375000 0.659129
vt 0.375000 0.659129
vt 0.375000 0.659129
vt 0.375000 0.659129
vt 0.375000 0.659129
vn 0.0000 1.0000 -0.0016
vn 0.0000 -1.0000 0.0000
vn 0.0000 0.2331 -0.9724
vn 0.0000 0.2288 -0.9735
vn 0.9923 0.1238 0.0000
vn 0.0000 0.0000 1.0000
vn 0.9923 -0.1238 0.0000
vn 0.9923 0.1240 -0.0001
vn 0.9923 -0.1237 0.0000
vn 0.0000 1.0000 0.0000
vn 0.0000 -0.4016 0.9158
vn -0.0000 0.0000 -1.0000
vn 0.2588 0.9659 0.0000
vn 0.7071 0.7071 0.0000
vn 0.9659 0.2588 0.0000
vn 0.9659 -0.2588 -0.0000
vn 0.7071 -0.7071 -0.0000
vn 0.2588 -0.9659 -0.0000
vn -0.2588 -0.9659 0.0000
vn -0.7071 0.7071 0.0000
vn -0.7071 -0.7071 0.0000
vn -0.2588 0.9659 0.0000
vn -0.9659 -0.2588 0.0000
vn -0.9659 0.2588 0.0000
vn -1.0000 0.0000 0.0000
vn 1.0000 0.0000 0.0000
vn 0.0000 -1.0000 0.0007
vn 0.9923 -0.1236 0.0001
vn 0.9922 0.1243 -0.0002
vn 0.0000 1.0000 -0.0057
vn 0.9786 -0.2059 0.0000
vn 0.9370 -0.3495 0.0000
vn 0.0000 0.2974 -0.9547
vn 0.9423 -0.3322 -0.0417
vn 0.0000 0.0300 -0.9996
vn 0.9116 0.4110 0.0000
vn 0.0000 -0.2284 0.9736
vn 0.0000 -0.9956 0.0941
vn -0.0000 0.9956 -0.0941
vn -0.0000 -0.9487 -0.3162
vn 0.0000 0.9487 0.3162
vn -0.9923 0.1238 0.0000
vn -0.9923 -0.1238 0.0000
vn -0.9923 0.1240 -0.0001
vn -0.9923 -0.1237 0.0000
vn -0.9923 -0.1236 0.0001
vn -0.9922 0.1243 -0.0002
vn -0.9786 -0.2059 0.0000
vn -0.9370 -0.3495 0.0000
vn -0.9423 -0.3322 -0.0417
vn -0.9116 0.4110 0.0000
usemtl Material
s off
f 97/1/1 99/2/1 21/3/1 17/4/1
f 20/5/2 15/6/2 4/7/2 9/8/2
f 11/9/3 10/10/3 1/11/3 5/12/3
f 7/13/4 11/9/4 5/12/4 2/14/4
f 18/15/5 16/16/5 3/17/5 6/18/5
f 4/7/6 6/18/6 12/19/6 9/20/6
f 6/18/6 3/17/6 8/21/6 12/19/6
f 15/6/7 18/15/7 6/18/7 4/7/7
f 96/22/8 97/1/8 17/4/8 13/23/8
f 87/24/7 90/25/7 18/15/7 15/6/7
f 98/26/9 96/22/9 13/23/9 14/27/9
f 88/28/10 91/29/10 22/30/10 16/16/10
f 16/16/10 22/30/10 8/31/10 3/17/10
f 90/25/5 88/28/5 16/16/5 18/15/5
f 14/27/11 19/32/11 110/33/11 111/34/11
f 106/35/12 105/36/12 95/37/12 92/38/12
f 23/39/13 24/40/13 26/41/13 25/42/13
f 25/42/14 26/41/14 28/43/14 27/44/14
f 27/44/15 28/43/15 30/45/15 29/46/15
f 29/46/16 30/45/16 32/47/16 31/48/16
f 31/48/17 32/47/17 34/49/17 33/50/17
f 33/50/18 34/49/18 36/51/18 35/52/18
f 34/49/6 32/47/6 51/53/6 52/54/6
f 23/55/12 25/56/12 27/57/12 29/58/12 31/59/12 33/60/12 35/61/12 37/62/12 39/63/12 41/64/12 43/65/12 45/66/12
f 47/67/19 48/68/19 60/69/19 59/70/19
f 46/71/6 44/72/6 57/73/6 58/74/6
f 32/47/6 30/45/6 50/75/6 51/53/6
f 26/41/6 24/40/6 48/68/6 47/67/6
f 30/45/6 28/43/6 49/76/6 50/75/6
f 28/43/6 26/41/6 47/67/6 49/76/6
f 40/77/6 38/78/6 54/79/6 55/80/6
f 44/72/6 42/81/6 56/82/6 57/73/6
f 24/83/6 46/71/6 58/74/6 48/84/6
f 38/78/6 36/85/6 53/86/6 54/79/6
f 36/51/6 34/49/6 52/54/6 53/87/6
f 42/81/6 40/77/6 55/80/6 56/82/6
f 59/88/6 60/89/6 70/90/6 69/91/6 68/92/6 67/93/6 66/94/6 65/95/6 64/96/6 63/97/6 62/98/6 61/99/6
f 55/80/14 54/79/14 66/100/14 67/101/14
f 52/54/20 51/53/20 63/102/20 64/103/20
f 48/84/18 58/74/18 70/104/18 60/105/18
f 49/76/21 47/67/21 59/70/21 61/106/21
f 56/82/15 55/80/15 67/101/15 68/107/15
f 53/87/22 52/54/22 64/103/22 65/108/22
f 50/75/23 49/76/23 61/106/23 62/109/23
f 57/73/16 56/82/16 68/107/16 69/110/16
f 54/79/13 53/86/13 65/111/13 66/100/13
f 51/53/24 50/75/24 62/109/24 63/102/24
f 58/74/17 57/73/17 69/110/17 70/104/17
f 71/112/25 72/113/25 74/114/25 73/115/25
f 73/115/12 74/114/12 78/116/12 77/117/12
f 77/117/26 78/116/26 76/118/26 75/119/26
f 75/119/6 76/118/6 72/120/6 71/121/6
f 73/122/2 77/117/2 75/119/2 71/123/2
f 78/116/10 74/124/10 72/125/10 76/118/10
f 79/126/25 80/127/25 82/128/25 81/129/25
f 81/129/12 82/128/12 86/130/12 85/131/12
f 85/131/26 86/130/26 84/132/26 83/133/26
f 83/133/6 84/132/6 80/134/6 79/135/6
f 81/136/2 85/131/2 83/133/2 79/137/2
f 86/130/10 82/138/10 80/139/10 84/132/10
f 19/32/2 14/27/2 87/24/2 89/140/2
f 13/23/5 17/4/5 88/28/5 90/25/5
f 17/4/10 21/3/10 91/29/10 88/28/10
f 14/27/7 13/23/7 90/25/7 87/24/7
f 94/141/6 93/142/6 122/143/6 123/144/6
f 107/145/25 106/146/25 92/147/25 93/148/25
f 108/149/6 107/150/6 93/142/6 94/141/6
f 105/36/26 108/149/26 94/141/26 95/37/26
f 7/151/27 2/14/27 98/26/27 100/152/27
f 2/14/28 5/12/28 96/22/28 98/26/28
f 5/12/29 1/11/29 97/1/29 96/22/29
f 1/11/30 10/153/30 99/2/30 97/1/30
f 87/24/31 15/6/31 104/154/31 101/155/31
f 15/6/6 20/5/6 103/156/6 104/154/6
f 20/157/25 89/158/25 102/159/25 103/160/25
f 89/140/12 87/24/12 101/155/12 102/161/12
f 101/155/32 104/154/32 108/149/32 105/36/32
f 104/154/6 103/156/6 107/150/6 108/149/6
f 103/160/25 102/159/25 106/146/25 107/145/25
f 102/161/12 101/155/12 105/36/12 106/35/12
f 109/162/33 112/163/33 116/164/33 113/165/33
f 98/26/34 14/27/34 111/34/34 112/163/34
f 100/152/35 98/26/35 112/163/35 109/162/35
f 116/164/36 115/166/36 119/167/36 120/168/36
f 111/34/37 110/33/37 114/169/37 115/166/37
f 112/163/26 111/34/26 115/166/26 116/164/26
f 117/170/2 120/168/2 119/167/2 118/171/2
f 113/165/12 116/164/12 120/168/12 117/170/12
f 115/166/6 114/169/6 118/171/6 119/167/6
f 121/172/2 124/173/2 123/144/2 122/143/2
f 95/37/26 94/141/26 123/144/26 124/173/26
f 93/148/25 92/147/25 121/174/25 122/175/25
f 121/174/25 92/147/25 126/176/25 128/177/25
f 128/177/25 126/176/25 130/178/25 132/179/25
f 124/173/38 121/172/38 128/180/38 127/181/38
f 95/37/26 124/173/26 127/181/26 125/182/26
f 92/38/39 95/37/39 125/182/39 126/183/39
f 130/184/12 129/185/12 131/186/12 132/187/12
f 127/181/40 128/180/40 132/187/40 131/186/40
f 125/182/26 127/181/26 131/186/26 129/185/26
f 126/183/41 125/182/41 129/185/41 130/184/41
f 207/188/1 143/189/1 21/3/1 99/2/1
f 20/5/2 9/8/2 136/190/2 141/191/2
f 11/9/3 137/192/3 133/193/3 10/10/3
f 7/13/4 134/194/4 137/192/4 11/9/4
f 144/195/42 138/196/42 135/197/42 142/198/42
f 136/190/6 9/20/6 12/19/6 138/196/6
f 138/196/6 12/19/6 8/21/6 135/197/6
f 141/191/43 136/190/43 138/196/43 144/195/43
f 206/199/44 139/200/44 143/189/44 207/188/44
f 201/201/43 141/191/43 144/195/43 203/202/43
f 208/203/45 140/204/45 139/200/45 206/199/45
f 202/205/10 142/198/10 22/30/10 91/29/10
f 142/198/10 135/197/10 8/31/10 22/30/10
f 203/202/42 144/195/42 142/198/42 202/205/42
f 140/204/11 213/206/11 110/33/11 19/32/11
f 106/35/12 92/38/12 205/207/12 211/208/12
f 23/39/22 145/209/22 146/210/22 24/40/22
f 145/209/20 147/211/20 148/212/20 146/210/20
f 147/211/24 149/213/24 150/214/24 148/212/24
f 149/213/23 151/215/23 152/216/23 150/214/23
f 151/215/21 153/217/21 154/218/21 152/216/21
f 153/217/19 35/52/19 36/51/19 154/218/19
f 154/218/6 169/219/6 168/220/6 152/216/6
f 23/55/12 163/221/12 161/222/12 159/223/12 157/224/12 155/225/12 35/61/12 153/226/12 151/227/12 149/228/12 147/229/12 145/230/12
f 165/231/18 175/232/18 60/69/18 48/68/18
f 164/233/6 174/234/6 173/235/6 162/236/6
f 152/216/6 168/220/6 167/237/6 150/214/6
f 146/210/6 165/231/6 48/68/6 24/40/6
f 150/214/6 167/237/6 166/238/6 148/212/6
f 148/212/6 166/238/6 165/231/6 146/210/6
f 158/239/6 171/240/6 170/241/6 156/242/6
f 162/236/6 173/235/6 172/243/6 160/244/6
f 24/83/6 48/84/6 174/234/6 164/233/6
f 156/242/6 170/241/6 53/86/6 36/85/6
f 36/51/6 53/87/6 169/219/6 154/218/6
f 160/244/6 172/243/6 171/240/6 158/239/6
f 175/245/6 176/246/6 177/247/6 178/248/6 179/249/6 65/95/6 180/250/6 181/251/6 182/252/6 183/253/6 184/254/6 60/89/6
f 171/240/20 181/255/20 180/256/20 170/241/20
f 169/219/14 179/257/14 178/258/14 168/220/14
f 48/84/19 60/105/19 184/259/19 174/234/19
f 166/238/17 176/260/17 175/232/17 165/231/17
f 172/243/24 182/261/24 181/255/24 171/240/24
f 53/87/13 65/108/13 179/257/13 169/219/13
f 167/237/16 177/262/16 176/260/16 166/238/16
f 173/235/23 183/263/23 182/261/23 172/243/23
f 170/241/22 180/256/22 65/111/22 53/86/22
f 168/220/15 178/258/15 177/262/15 167/237/15
f 174/234/21 184/259/21 183/263/21 173/235/21
f 185/264/26 187/265/26 188/266/26 186/267/26
f 187/265/12 191/268/12 192/269/12 188/266/12
f 191/268/25 189/270/25 190/271/25 192/269/25
f 189/270/6 185/272/6 186/273/6 190/271/6
f 187/274/2 185/275/2 189/270/2 191/268/2
f 192/269/10 190/271/10 186/276/10 188/277/10
f 193/278/26 195/279/26 196/280/26 194/281/26
f 195/279/12 199/282/12 200/283/12 196/280/12
f 199/282/25 197/284/25 198/285/25 200/283/25
f 197/284/6 193/286/6 194/287/6 198/285/6
f 195/288/2 193/289/2 197/284/2 199/282/2
f 200/283/10 198/285/10 194/290/10 196/291/10
f 19/32/2 89/140/2 201/201/2 140/204/2
f 139/200/42 203/202/42 202/205/42 143/189/42
f 143/189/10 202/205/10 91/29/10 21/3/10
f 140/204/43 201/201/43 203/202/43 139/200/43
f 204/292/6 219/293/6 122/143/6 93/142/6
f 212/294/6 204/292/6 93/142/6 107/150/6
f 211/208/25 205/207/25 204/292/25 212/294/25
f 7/151/27 100/152/27 208/203/27 134/194/27
f 134/194/46 208/203/46 206/199/46 137/192/46
f 137/192/47 206/199/47 207/188/47 133/193/47
f 133/193/30 207/188/30 99/2/30 10/153/30
f 201/201/48 209/295/48 210/296/48 141/191/48
f 141/191/6 210/296/6 103/156/6 20/5/6
f 89/140/12 102/161/12 209/295/12 201/201/12
f 209/295/49 211/208/49 212/294/49 210/296/49
f 210/296/6 212/294/6 107/150/6 103/156/6
f 102/161/12 106/35/12 211/208/12 209/295/12
f 109/162/33 113/165/33 216/297/33 214/298/33
f 208/203/50 214/298/50 213/206/50 140/204/50
f 100/152/35 109/162/35 214/298/35 208/203/35
f 216/297/51 218/299/51 217/300/51 215/301/51
f 213/206/37 215/301/37 114/169/37 110/33/37
f 214/298/25 216/297/25 215/301/25 213/206/25
f 117/170/2 118/171/2 217/300/2 218/299/2
f 113/165/12 117/170/12 218/299/12 216/297/12
f 215/301/6 217/300/6 118/171/6 114/169/6
f 121/172/2 122/143/2 219/293/2 220/302/2
f 205/207/25 220/302/25 219/293/25 204/292/25
f 220/302/38 222/303/38 128/180/38 121/172/38
f 205/207/25 221/304/25 222/303/25 220/302/25
f 92/38/39 126/183/39 221/304/39 205/207/39
f 130/184/12 132/187/12 224/305/12 223/306/12
f 222/303/40 224/305/40 132/187/40 128/180/40
f 221/304/25 223/306/25 224/305/25 222/303/25
f 126/183/41 130/184/41 223/306/41 221/304/41
o Hand_Cube.001
v -1.626147 -2.556986 -1.806420
v -1.626147 0.531851 -1.056455
v -1.769483 -2.511387 -2.084358
v -1.525690 0.647971 -2.434026
v -0.815552 -2.556986 -1.806420
v -0.815552 0.531851 -1.056455
v -0.961017 -2.562580 -2.113078
v -0.715096 0.647971 -2.434026
v -1.626147 0.930832 -4.992240
v -1.626147 -1.802480 -5.968759
v -0.815552 -1.802480 -5.968759
v -0.815552 0.930832 -4.992240
v 0.848926 0.365977 -3.284845
v 0.848926 -2.638617 -4.261364
v 0.848926 0.921844 -4.995161
v 0.848926 -2.082749 -5.971680
v -1.626147 -2.035481 -1.702424
v -1.626147 -1.517473 -1.599125
v -1.626147 -0.815782 -1.459197
v -1.611927 -0.290584 -2.291360
v -1.674520 -1.211088 -2.212446
v -1.722002 -1.996879 -2.148402
v -0.803460 -0.341777 -2.320081
v -0.754592 -1.278777 -2.244380
v -0.795953 -2.052630 -2.029331
v -0.815552 -0.815782 -1.459197
v -0.815552 -1.517472 -1.599125
v -0.815552 -2.035481 -1.702424
v -1.626147 0.179684 -5.236369
v -1.626147 -0.571464 -5.480499
v -1.626147 -1.322613 -5.724629
v -2.353459 3.290714 -9.963812
v -1.147875 -1.177973 -11.416173
v -2.353459 -1.177973 -11.416173
v 0.848926 -0.385171 -3.528975
v 0.848926 -1.136320 -3.773105
v 0.848926 -1.887468 -4.017235
v -2.353459 -0.060802 -11.053083
v 0.848926 -0.580452 -5.483420
v 0.848926 -1.331601 -5.727550
v -0.585371 0.000434 -0.160803
v -0.585371 0.545596 -0.150587
v -0.801372 -0.165239 -1.039585
v -1.611966 -0.165239 -1.039585
v -0.585371 0.537587 -0.942167
v -0.585371 -0.007575 -0.952383
v -0.346789 -2.146116 -1.918024
v -0.346789 -2.659343 -2.017297
v -0.304363 -2.752147 -1.125215
v -0.304363 -2.238920 -1.025942
v -0.304363 -1.729132 -0.927335
v -0.304363 -1.038579 -0.793763
v -0.346789 -0.945775 -1.685845
v -0.346789 -1.636329 -1.819417
v 0.840221 0.577794 -0.600217
v 0.840221 0.032631 -0.610433
v 0.840221 0.585803 0.191363
v 0.840221 0.040641 0.181147
v 1.319173 -2.114123 -2.068470
v 1.319173 -2.627351 -2.167743
v 1.319173 -2.720155 -1.412714
v 1.319173 -2.206928 -1.313442
v 1.319173 -1.697140 -1.214835
v 1.319173 -1.006587 -1.081263
v 1.319173 -0.913783 -1.836291
v 1.319173 -1.604336 -1.969864
v 1.853230 0.365977 -3.284845
v 1.853230 0.921844 -4.995161
v 1.853230 -0.385171 -3.528975
v 1.853230 -1.136320 -3.773105
v 1.853230 0.170696 -5.239291
v 1.853230 -0.580452 -5.483420
v 0.786265 0.333787 -2.016018
v 0.786265 -0.417361 -2.260148
v 1.790569 0.333787 -2.016018
v 1.790569 -0.417361 -2.260148
v 0.786265 0.026464 -1.070434
v 0.786265 -0.724685 -1.314563
v 1.790569 0.026464 -1.070434
v 1.790569 -0.724685 -1.314563
v -2.353459 -0.920920 -8.406637
v -2.353459 -2.038091 -8.769726
v -1.147875 -2.038091 -8.769726
v -2.353459 2.430596 -7.317365
v -1.147875 2.430596 -7.317365
v 1.327680 -0.934287 -8.410980
v 1.327680 -2.051459 -8.774072
v 1.327680 2.417229 -7.321710
v -2.353459 1.313424 -7.680455
v -2.353459 0.196252 -8.043546
v 1.327680 0.182885 -8.047890
v 2.821366 1.300057 -7.684800
v 2.821366 2.417229 -7.321710
v 2.821366 0.182885 -8.047890
v -1.147875 3.290714 -9.963812
v -1.147875 -0.060802 -11.053083
v 1.327680 -0.074169 -11.057427
v 1.327680 -1.191341 -11.420519
v 1.327680 3.277347 -9.968156
v -2.353459 2.173542 -10.326902
v -2.353459 1.056371 -10.689993
v -1.147875 2.173542 -10.326902
v -1.147875 1.056371 -10.689993
v 1.327680 2.160175 -10.331247
v 1.327680 1.043003 -10.694338
v 2.821366 2.160175 -10.331247
v 2.821366 3.277347 -9.968156
v 2.821366 1.043003 -10.694338
vt 0.562500 0.000000
vt 0.625000 0.000000
vt 0.625000 0.250000
vt 0.562500 0.250000
vt 0.875000 0.500000
vt 0.625000 0.500000
vt 0.625000 0.500000
vt 0.875000 0.500000
vt 0.562500 0.500000
vt 0.625000 0.750000
vt 0.562500 0.750000
vt 0.562500 0.750000
vt 0.562500 0.000000
vt 0.125000 0.500000
vt 0.375000 0.500000
vt 0.375000 0.750000
vt 0.125000 0.750000
vt 0.875000 0.750000
vt 0.625000 0.500000
vt 0.562500 0.500000
vt 0.562500 0.500000
vt 0.625000 0.500000
vt 0.625000 0.250000
vt 0.562500 0.250000
vt 0.625000 0.500000
vt 0.625000 0.500000
vt 0.125000 0.500000
vt 0.375000 0.500000
vt 0.437500 0.500000
vt 0.375000 0.500000
vt 0.375000 0.500000
vt 0.437500 0.500000
vt 0.437500 0.500000
vt 0.437500 0.250000
vt 0.500000 0.250000
vt 0.500000 0.250000
vt 0.437500 0.250000
vt 0.375000 0.250000
vt 0.375000 0.250000
vt 0.562500 0.250000
vt 0.375000 0.500000
vt 0.375000 0.500000
vt 0.562500 0.500000
vt 0.500000 0.500000
vt 0.500000 0.500000
vt 0.500000 0.500000
vt 0.500000 0.500000
vt 0.500000 0.500000
vt 0.625000 0.250000
vt 0.375000 0.250000
vt 0.437500 0.250000
vt 0.500000 0.250000
vt 0.625000 0.500000
vt 0.625000 0.500000
vt 0.500000 0.500000
vt 0.500000 0.500000
vt 0.437500 0.500000
vt 0.500000 0.750000
vt 0.562500 0.750000
vt 0.562500 0.750000
vt 0.500000 0.750000
vt 0.500000 0.000000
vt 0.437500 0.000000
vt 0.437500 0.000000
vt 0.500000 0.000000
vt 0.437500 0.750000
vt 0.437500 0.750000
vt 0.375000 0.750000
vt 0.375000 0.000000
vt 0.562500 0.000000
vt 0.625000 0.750000
vt 0.625000 0.750000
vt 0.562500 0.750000
vt 0.625000 0.000000
vt 0.875000 0.750000
vt 0.437500 0.000000
vt 0.500000 0.000000
vt 0.562500 0.750000
vt 0.500000 0.750000
vt 0.562500 0.000000
vt 0.562500 0.000000
vt 0.125000 0.750000
vt 0.375000 0.000000
vt 0.625000 1.000000
vt 0.562500 1.000000
vt 0.875000 0.750000
vt 0.562500 0.000000
vt 0.625000 0.000000
vt 0.375000 0.750000
vt 0.437500 0.750000
vt 0.437500 1.000000
vt 0.375000 1.000000
vt 0.500000 1.000000
vt 0.562500 1.000000
vt 0.125000 0.750000
vt 0.375000 0.000000
vt 0.625000 0.500000
vt 0.562500 0.500000
vt 0.625000 0.500000
vt 0.562500 0.500000
vt 0.875000 0.500000
vt 0.562500 0.500000
vt 0.562500 0.500000
vt 0.562500 0.500000
vt 0.625000 0.500000
vt 0.625000 0.500000
vt 0.625000 0.500000
vt 0.625000 0.500000
vt 0.875000 0.500000
vt 0.500000 0.500000
vt 0.562500 0.500000
vt 0.500000 0.250000
vt 0.437500 0.250000
vt 0.125000 0.500000
vt 0.125000 0.500000
vt 0.375000 0.500000
vt 0.625000 0.500000
vt 0.562500 0.250000
vt 0.437500 0.500000
vt 0.500000 0.500000
vt 0.375000 0.250000
vt 0.625000 0.250000
vt 0.375000 0.500000
vt 0.562500 0.500000
vt 0.625000 0.500000
vt 0.562500 0.500000
vt 0.437500 0.500000
vt 0.500000 0.500000
vt 0.000000 0.000000
vt 0.000000 0.000000
vt 0.000000 0.000000
vt 0.000000 0.000000
vt 0.000000 0.000000
vt 0.000000 0.000000
vt 0.000000 0.000000
vt 0.000000 0.000000
vn -0.9985 0.0402 -0.0383
vn 0.0000 0.9939 0.1099
vn 0.9984 -0.0410 0.0379
vn 0.1375 -0.9790 0.1508
vn -0.0325 -0.9981 -0.0523
vn 0.0000 0.9965 0.0840
vn 0.9403 -0.1052 0.3237
vn -0.9984 0.0493 0.0276
vn 0.1373 0.9725 0.1879
vn -0.0344 -0.9816 -0.1876
vn 1.0000 0.0000 0.0000
vn -0.2388 -0.9436 -0.2293
vn 0.7443 -0.2576 0.6161
vn -0.9650 -0.0811 0.2495
vn -0.9628 -0.0960 0.2525
vn -0.0706 -0.9969 0.0345
vn 0.5306 -0.0900 0.8428
vn 0.6435 -0.0575 0.7633
vn 0.7356 -0.0329 0.6766
vn 0.0000 -0.9510 -0.3091
vn -0.9984 0.0517 -0.0224
vn -0.9994 0.0326 -0.0148
vn -0.9993 0.0373 0.0012
vn 0.0055 0.8407 0.5415
vn 0.0000 -0.9584 -0.2853
vn 0.9844 -0.0545 0.1676
vn -0.3846 0.1779 -0.9058
vn -0.4688 -0.1703 0.8667
vn -0.3734 0.1788 -0.9103
vn 0.9744 -0.1215 -0.1892
vn 0.9967 -0.0253 0.0768
vn 0.9977 0.0274 0.0613
vn -0.9480 0.0312 0.3169
vn -0.9889 0.0317 0.1450
vn -0.9983 0.0368 0.0448
vn -0.0293 -0.9925 0.1183
vn 0.0362 0.8604 0.5083
vn 0.2327 0.0182 -0.9724
vn -0.6533 -0.0034 0.7571
vn 0.4116 -0.0002 -0.9114
vn -0.0040 0.9999 -0.0142
vn 0.1749 -0.1870 0.9667
vn -0.0919 0.1891 -0.9776
vn -0.0044 0.9937 0.1121
vn 0.1369 0.9662 0.2184
vn -0.1103 -0.9743 -0.1963
vn -0.4669 -0.1705 0.8677
vn -0.3786 0.1784 -0.9082
vn -0.4704 -0.1701 0.8659
vn -0.0258 0.9996 -0.0101
vn -0.2327 -0.0182 0.9724
vn 0.0258 -0.9996 0.0101
vn 0.0044 -0.9937 -0.1121
vn 0.9987 -0.0159 0.0489
vn 0.0000 0.9510 0.3091
vn 0.0000 0.8403 0.5420
vn 0.0000 -0.3091 0.9510
vn 0.0000 0.9997 0.0254
vn -0.9987 0.0159 -0.0489
vn 0.0000 -0.9997 -0.0254
vn -1.0000 -0.0000 0.0000
vn -0.0057 -0.9510 -0.3091
vn 0.0000 -0.9965 0.0838
vn 0.0000 0.8412 0.5407
vn 0.0000 0.3091 -0.9510
vn 0.0057 0.9510 0.3091
vn 0.6006 -0.7994 -0.0112
vn 0.6182 -0.7476 -0.2430
usemtl Material.001
s off
f 268/307/52 226/308/52 228/309/52 244/310/52
f 228/311/53 232/312/53 236/313/53 233/314/53
f 247/315/54 232/312/54 230/316/54 267/317/54
f 268/307/55 267/317/55 270/318/55 265/319/55
f 227/320/56 231/321/56 229/322/56 225/323/56
f 232/312/57 228/311/57 226/324/57 230/316/57
f 292/325/58 295/326/58 316/327/58 317/328/58
f 244/310/59 228/309/59 233/329/59 253/330/59
f 236/313/60 232/312/60 237/331/60 239/332/60
f 231/321/61 227/320/61 234/333/61 235/334/61
f 261/335/62 238/336/62 240/337/62 264/338/62
f 231/321/63 235/334/63 240/337/63 238/336/63
f 249/339/64 231/321/64 238/336/64 261/335/64
f 255/340/65 254/341/65 314/342/65 305/343/65
f 234/344/66 255/340/66 305/343/66 306/345/66
f 254/341/65 253/330/65 313/346/65 314/342/65
f 240/337/67 235/334/67 307/347/67 311/348/67
f 232/312/68 247/315/68 259/349/68 237/331/68
f 247/315/69 248/350/69 260/351/69 259/349/69
f 248/350/70 249/339/70 261/335/70 260/351/70
f 260/351/71 263/352/71 296/353/71 294/354/71
f 253/330/65 233/329/65 308/355/65 313/346/65
f 260/351/62 261/335/62 264/338/62 263/352/62
f 227/356/72 246/357/72 255/340/72 234/344/72
f 246/357/73 245/358/73 254/341/73 255/340/73
f 245/358/74 244/310/74 253/330/74 254/341/74
f 236/313/75 239/332/75 312/359/75 309/360/75
f 296/353/76 263/352/76 315/361/76 318/362/76
f 263/352/77 264/338/77 310/363/77 315/361/77
f 251/364/78 250/365/78 277/366/78 278/367/78
f 242/368/79 241/369/79 274/370/79 275/371/79
f 229/322/80 252/372/80 271/373/80 272/374/80
f 231/321/81 249/339/81 252/372/81 229/322/81
f 249/339/82 248/350/82 251/364/82 252/372/82
f 248/350/83 247/315/83 250/365/83 251/364/83
f 225/375/84 241/369/84 246/357/84 227/356/84
f 241/369/85 242/368/85 245/358/85 246/357/85
f 242/368/86 243/376/86 244/310/86 245/358/86
f 247/315/87 267/317/87 268/307/87 244/310/87
f 247/315/88 244/310/88 243/376/88 250/365/88
f 270/318/89 269/377/89 279/378/89 280/379/89
f 226/308/90 268/307/90 265/319/90 266/380/90
f 267/317/91 230/316/91 269/377/91 270/318/91
f 230/316/92 226/324/92 266/381/92 269/377/92
f 275/371/93 274/370/93 286/382/93 287/383/93
f 278/367/94 277/366/94 289/384/94 290/385/94
f 277/366/95 276/386/95 288/387/95 289/384/95
f 250/365/96 243/376/96 276/386/96 277/366/96
f 225/323/97 229/322/97 272/374/97 273/388/97
f 243/376/98 242/368/98 275/371/98 276/386/98
f 252/372/99 251/364/99 278/367/99 271/373/99
f 241/369/100 225/375/100 273/389/100 274/370/100
f 280/379/62 279/378/62 281/390/62 282/391/62
f 269/377/101 266/381/101 281/392/101 279/378/101
f 266/380/102 265/319/102 282/393/102 281/394/102
f 265/319/103 270/318/103 280/379/103 282/393/103
f 284/395/62 283/396/62 286/397/62 285/398/62
f 283/396/62 290/385/62 287/399/62 286/397/62
f 290/385/62 289/384/62 288/400/62 287/399/62
f 273/388/104 272/374/104 284/395/104 285/401/104
f 271/373/94 278/367/94 290/385/94 283/396/94
f 276/386/93 275/371/93 287/383/93 288/387/93
f 274/370/93 273/389/93 285/402/93 286/382/93
f 272/374/94 271/373/94 283/396/94 284/395/94
f 291/403/62 293/404/62 295/326/62 292/325/62
f 293/404/62 294/354/62 296/353/62 295/326/62
f 293/404/105 291/403/105 299/405/105 300/406/105
f 239/332/106 237/331/106 291/403/106 292/325/106
f 233/314/107 236/313/107 309/360/107 308/407/107
f 259/349/108 260/351/108 294/354/108 293/404/108
f 298/408/71 300/406/71 304/409/71 302/410/71
f 291/403/109 237/331/109 297/411/109 299/405/109
f 237/331/110 259/349/110 298/408/110 297/411/110
f 259/349/111 293/404/111 300/406/111 298/408/111
f 301/412/108 302/410/108 304/409/108 303/413/108
f 297/411/112 298/408/112 302/410/112 301/412/112
f 299/405/106 297/411/106 301/412/106 303/413/106
f 300/406/62 299/405/62 303/413/62 304/409/62
f 308/407/106 309/360/106 319/414/106 256/415/106
f 316/327/62 318/362/62 332/416/62 330/417/62
f 305/343/112 314/342/112 325/418/112 262/419/112
f 307/347/71 306/420/71 258/421/71 257/422/71
f 317/328/62 316/327/62 330/417/62 331/423/62
f 314/342/112 313/346/112 324/424/112 325/418/112
f 315/361/62 310/363/62 321/425/62 329/426/62
f 306/345/112 305/343/112 262/419/112 258/427/112
f 313/346/112 308/355/112 256/428/112 324/424/112
f 311/348/113 307/347/113 257/422/113 322/429/113
f 235/334/114 234/333/114 306/420/114 307/347/114
f 239/332/115 292/325/115 317/328/115 312/359/115
f 264/338/77 240/337/77 311/348/77 310/363/77
f 295/326/58 296/353/58 318/362/58 316/327/58
f 324/424/116 256/428/116 319/414/116 326/430/116
f 326/430/116 319/414/116 323/431/116 328/432/116
f 257/422/116 320/433/116 321/425/116 322/429/116
f 320/433/116 327/434/116 329/426/116 321/425/116
f 327/434/116 326/430/116 328/432/116 329/426/116
f 329/426/116 328/432/116 330/417/116 332/416/116
f 258/427/116 262/419/116 320/433/116 257/422/116
f 262/419/116 325/418/116 327/434/116 320/433/116
f 325/418/116 324/424/116 326/430/116 327/434/116
f 328/432/116 323/431/116 331/423/116 330/417/116
f 318/362/71 315/361/71 329/426/71 332/416/71
f 312/359/106 317/328/106 331/423/106 323/431/106
f 310/363/62 311/348/62 322/429/62 321/425/62
f 309/360/117 312/359/117 323/431/117 319/414/117
f 263/435/108 264/436/108 296/437/108
f 310/438/118 318/439/118 296/437/118 264/436/118
f 318/439/119 310/438/119 321/440/119 332/441/119
f 329/442/116 332/441/116 321/440/116
